<?xml version="1.0" encoding="UTF-8" standalone="no"?>
<!DOCTYPE svg PUBLIC "-//W3C//Dtd SVG 1.1//EN" "http://www.w3.org/Graphics/SVG/1.1/Dtd/svg11.dtd">
<svg xmlns="http://www.w3.org/2000/svg" width="7672.797773mm" height="9258.496881mm" viewBox="785.252740112752 -12770.0508296286 7672.797773 9258.496881" version="1.1" preserveAspectratio="xMidYMid">
  <!--SVG version of Rhinoceros 5.0 file _户型1.3dm_-->
  <!-- Millimeters in Rhinoceros file-->
  <!-- Millimeters in SVG file-->
  <!--Export Rhino to SVG, version 0.3, 21 of November 2016, Laurent Delrieu email:l[dot]delrieu[at]neuf.fr-->
  <g id="预设值" stroke-width="0.25" stroke="rgb(0,0,0)" stroke-opacity="1" stroke-linecap="round" stroke-linejoin="round" fill="none" />
  <g id="0" stroke-width="0.25" stroke="rgb(0,0,0)" stroke-opacity="1" stroke-linecap="round" stroke-linejoin="round" fill="none">
    <path d="M 922.383147 -5244.371213L 1243.795337 -5244.371213L 1243.795337 -4605.296265L 922.383147 -4605.296265z" fill="none" />
    <path d="M 8355.576877 -3573.588495L 7171.063818 -3573.588495L 7171.063818 -4401.270863L 8355.576877 -4401.270863z" fill="none" />
    <path d="M 2029.946755 -11479.758213L 2029.946755 -12770.05083L 785.25274 -12770.05083L 785.25274 -11479.758213z" fill="none" />
    <path d="M 4667.193438 -11479.758213L 4667.193438 -12770.05083L 2029.946755 -12770.05083L 2029.946755 -11479.758213z" fill="none" />
    <path d="M 4667.193438 -11479.758213L 785.25274 -11479.758213L 785.25274 -8810.70424L 2558.473182 -8810.70424L 2558.473182 -7671.491894L 4667.193438 -7671.491894z" fill="none" />
    <path d="M 4667.193438 -6137.288427L 8458.050513 -6137.288427L 8458.050513 -11479.758213L 4667.193438 -11479.758213L 4667.193438 -7671.491894" fill="none" />
    <path d="M 2558.473182 -4520.322725L 1304.943759 -4520.322725L 1304.943759 -5305.097029L 785.25274 -5305.097029L 785.25274 -8810.70424L 2558.473182 -8810.70424L 2558.473182 -4520.322725" fill="none" />
    <path d="M 4667.193438 -5332.258536L 4667.193438 -7671.491894L 2558.473182 -7671.491894L 2558.473182 -5332.258536z" fill="none" />
    <path d="M 4667.193438 -5332.258536L 4667.193438 -6137.288427L 8458.050513 -6137.288427L 8458.050513 -4456.007173L 7104.202849 -4456.007173L 7104.202849 -3511.553949L 4667.193438 -3511.553949z" fill="none" />
    <path d="M 4658.988293 -3511.553949L 2558.473182 -3511.553949L 2558.473182 -4520.322725L 2558.473182 -5332.258536L 4667.193438 -5332.258536L 4667.193438 -3511.553949" fill="none" />
  </g>
  <g id="image" stroke-width="0.25" stroke="rgb(0,0,0)" stroke-opacity="1" stroke-linecap="round" stroke-linejoin="round" fill="none" />
</svg>